# xmcd CD database file
#
# Track frame offsets:
#	150
#	13721
#	24743
#	39154
#	53414
#	71123
#	85733
#	98327
#	108402
#	124472
#	138930
#	151800
#	174862
#	192592
#	202685
#	220154
#	237571
#
# Disc length: 3348 seconds
#
# Revision: 4
# Processed by: cddbd v1.5.2PL0 Copyright (c) Steve Scherf et al.
# Submitted via: ACXtractor (MTCDDB.DLL V2003.07.15)
#
DISCID=d90d1211
DTITLE=Various Artist - The Winners Volume 6 CD 2
DYEAR=1998
DGENRE=Country
TTITLE0=John Williamson - Woman On The Land
TTITLE1=Anne Kirkpatrick - You Can Believe In Me
TTITLE2=Colin Buchanan - Edge Of The Kimberley
TTITLE3=Andrew Clermont and Steve Berry - Once Upon Arrival
TTITLE4=Beccy Cole with Gina Jeffreys - Can I Trade Him In?
TTITLE5=Slim Dusty - Mechanised Swaggie
TTITLE6=Pixie - Kakadu
TTITLE7=Dead Ringer Band - Living In The Circle
TTITLE8=Tamara Stewart - No Surrender Romeo
TTITLE9=Michael Fix - Breakup Breakdown
TTITLE10=Darren Coggan - Silence And Me (Joe Byrne)
TTITLE11=Rosemary Rae with Graeme Connors - When You Feel Good
TTITLE12=Brian Young - The Land Of The Gagudju Man
TTITLE13=Trev and Kym Warner - Mando On The Mainland
TTITLE14=Dave Reynolds - 21 Guns
TTITLE15=Brian Letton - This Is It
TTITLE16=Ian Quinn - Coster
EXTD=ID3G:   2 YEAR: 1998
EXTT0=
EXTT1=
EXTT2=
EXTT3=
EXTT4=
EXTT5=
EXTT6=
EXTT7=
EXTT8=
EXTT9=
EXTT10=
EXTT11=
EXTT12=
EXTT13=
EXTT14=
EXTT15=
EXTT16=
PLAYORDER=
